<svg xmlns="http://www.w3.org/2000/svg">
    <symbol id="favorites" viewBox="0 -3.71 75.17 75.17">
        <path d="M117.606,280.375s22.263-15.459,31.959-30.318c9.6-14.708.354-31.054-10.533-33.8-14.457-3.65-21.426,10.478-21.426,10.478s-6.968-14.128-21.425-10.478c-10.888,2.748-20.132,19.094-10.534,33.8C95.343,264.916,117.606,280.375,117.606,280.375Z" transform="translate(-80.021 -214.131)" fill="none" stroke-linejoin="round" stroke-width="3"/>
    </symbol>

    <symbol id="favoritesFilled" viewBox="0 -3.71 75.17 75.17">
        <path d="M117.606,280.375s22.263-15.459,31.959-30.318c9.6-14.708.354-31.054-10.533-33.8-14.457-3.65-21.426,10.478-21.426,10.478s-6.968-14.128-21.425-10.478c-10.888,2.748-20.132,19.094-10.534,33.8C95.343,264.916,117.606,280.375,117.606,280.375Z" transform="translate(-80.021 -214.131)" fill="#f05a00"  stroke-linejoin="round" stroke-width="3"/>
    </symbol>

    <symbol id="user" stroke="none" viewBox="0 0 24 24">
        <path fill-rule="evenodd" clip-rule="evenodd" d="M12.0001 1.25C9.37678 1.25 7.25013 3.37665 7.25013 6C7.25013 8.62335 9.37678 10.75 12.0001 10.75C14.6235 10.75 16.7501 8.62335 16.7501 6C16.7501 3.37665 14.6235 1.25 12.0001 1.25ZM8.75013 6C8.75013 4.20507 10.2052 2.75 12.0001 2.75C13.7951 2.75 15.2501 4.20507 15.2501 6C15.2501 7.79493 13.7951 9.25 12.0001 9.25C10.2052 9.25 8.75013 7.79493 8.75013 6Z" fill="#ffffff"/>
        <path fill-rule="evenodd" clip-rule="evenodd" d="M12.0001 12.25C9.68658 12.25 7.55506 12.7759 5.97558 13.6643C4.41962 14.5396 3.25013 15.8661 3.25013 17.5L3.25007 17.602C3.24894 18.7638 3.24752 20.222 4.52655 21.2635C5.15602 21.7761 6.03661 22.1406 7.22634 22.3815C8.4194 22.6229 9.97436 22.75 12.0001 22.75C14.0259 22.75 15.5809 22.6229 16.7739 22.3815C17.9637 22.1406 18.8443 21.7761 19.4737 21.2635C20.7527 20.222 20.7513 18.7638 20.7502 17.602L20.7501 17.5C20.7501 15.8661 19.5807 14.5396 18.0247 13.6643C16.4452 12.7759 14.3137 12.25 12.0001 12.25ZM4.75013 17.5C4.75013 16.6487 5.37151 15.7251 6.71098 14.9717C8.02693 14.2315 9.89541 13.75 12.0001 13.75C14.1049 13.75 15.9733 14.2315 17.2893 14.9717C18.6288 15.7251 19.2501 16.6487 19.2501 17.5C19.2501 18.8078 19.2098 19.544 18.5265 20.1004C18.156 20.4022 17.5366 20.6967 16.4763 20.9113C15.4194 21.1252 13.9744 21.25 12.0001 21.25C10.0259 21.25 8.58087 21.1252 7.52393 20.9113C6.46366 20.6967 5.84425 20.4022 5.47372 20.1004C4.79045 19.544 4.75013 18.8078 4.75013 17.5Z" fill="#ffffff"/>
    </symbol>

    <symbol id="basket" stroke="none" viewBox="0 0 32 32">
        <path d="M31.739 8.875c-0.186-0.264-0.489-0.422-0.812-0.422h-21.223l-1.607-5.54c-0.63-2.182-2.127-2.417-2.741-2.417h-4.284c-0.549 0-0.993 0.445-0.993 0.993s0.445 0.993 0.993 0.993h4.283c0.136 0 0.549 0 0.831 0.974l5.527 20.311c0.12 0.428 0.511 0.724 0.956 0.724h13.499c0.419 0 0.793-0.262 0.934-0.657l4.758-14.053c0.11-0.304 0.064-0.643-0.122-0.907zM25.47 22.506h-12.046l-3.161-12.066h19.253zM23.5 26.504c-1.381 0-2.5 1.119-2.5 2.5s1.119 2.5 2.5 2.5 2.5-1.119 2.5-2.5c0-1.381-1.119-2.5-2.5-2.5zM14.5 26.504c-1.381 0-2.5 1.119-2.5 2.5s1.119 2.5 2.5 2.5 2.5-1.119 2.5-2.5c0-1.381-1.119-2.5-2.5-2.5z"></path>
    </symbol>

    <symbol id="burger" viewBox="0 0 24 24" fill="none">
        <path d="M4 18H10" stroke-width="2" stroke-linecap="round"/>
        <path d="M4 12L16 12" stroke-width="2" stroke-linecap="round"/>
        <path d="M4 6L20 6" stroke-width="2" stroke-linecap="round"/>
    </symbol> 

    <symbol id="back" viewBox="0 0 32 32">
        <path d="M14.389 7.956v4.374l1.056 0.010c7.335 0.071 11.466 3.333 12.543 9.944-4.029-4.661-8.675-4.663-12.532-4.664h-1.067v4.337l-9.884-7.001 9.884-7zM15.456 5.893l-12.795 9.063 12.795 9.063v-5.332c5.121 0.002 9.869 0.26 13.884 7.42 0-4.547-0.751-14.706-13.884-14.833v-5.381z">
        </path>
    </symbol>

    <symbol id="arrowTop" viewBox="0 0 24 24" fill="none">
        <path d="M12 6V18M12 6L7 11M12 6L17 11" stroke-width="2" stroke-linecap="round" stroke-linejoin="round"/>
    </symbol>

    <svg id="arrowPrev" viewBox="0 0 24 24" stroke="none">
        <path d="M16.1795 3.26875C15.7889 2.87823 15.1558 2.87823 14.7652 3.26875L8.12078 9.91322C6.94952 11.0845 6.94916 12.9833 8.11996 14.155L14.6903 20.7304C15.0808 21.121 15.714 21.121 16.1045 20.7304C16.495 20.3399 16.495 19.7067 16.1045 19.3162L9.53246 12.7442C9.14194 12.3536 9.14194 11.7205 9.53246 11.33L16.1795 4.68297C16.57 4.29244 16.57 3.65928 16.1795 3.26875Z"/>
    </svg>

    <symbol id="arrowNext" viewBox="0 0 24 24" stroke="none">
        <path d="M7.82054 20.7313C8.21107 21.1218 8.84423 21.1218 9.23476 20.7313L15.8792 14.0868C17.0505 12.9155 17.0508 11.0167 15.88 9.84497L9.3097 3.26958C8.91918 2.87905 8.28601 2.87905 7.89549 3.26958C7.50497 3.6601 7.50497 4.29327 7.89549 4.68379L14.4675 11.2558C14.8581 11.6464 14.8581 12.2795 14.4675 12.67L7.82054 19.317C7.43002 19.7076 7.43002 20.3407 7.82054 20.7313Z" />
    </symbol>    

     <svg  viewBox="0 0 48 48" id="phone" >
        <path class="c" d="m19.308,12.467c-.4234-1.4115-.7215-2.8773-.8813-4.3843-.1571-1.4812-1.449-2.5826-2.9385-2.5826h-6.9092c-1.7767,0-3.1454,1.5345-2.989,3.3043,1.5754,17.8285,15.7771,32.0302,33.6056,33.6056,1.7698.1564,3.3043-1.2073,3.3043-2.9839v-6.1595c0-2.2488-1.1015-3.5362-2.5826-3.6932-1.507-.1598-2.9728-.4579-4.3843-.8813-1.7266-.5179-3.5957-.0304-4.8704,1.2442l-2.9566,2.9566c-5.326-2.8825-9.7164-7.2729-12.5989-12.5989l2.9566-2.9567c1.2746-1.2746,1.7621-3.1438,1.2442-4.8703Z"/>
     </svg>

    <svg  id="email" viewBox="0 0 32 32" style="fill-rule:evenodd;clip-rule:evenodd;stroke-linejoin:round;stroke-miterlimit:2;"  >
        <path d="M31,10c0,-1.326 -0.527,-2.598 -1.464,-3.536c-0.938,-0.937 -2.21,-1.464 -3.536,-1.464c-5.322,0 -14.678,0 -20,0c-1.326,-0 -2.598,0.527 -3.536,1.464c-0.937,0.938 -1.464,2.21 -1.464,3.536c0,3.486 0,8.514 0,12c-0,1.326 0.527,2.598 1.464,3.536c0.938,0.937 2.21,1.464 3.536,1.464c5.322,-0 14.678,-0 20,-0c1.326,0 2.598,-0.527 3.536,-1.464c0.937,-0.938 1.464,-2.21 1.464,-3.536c0,-3.486 0,-8.514 0,-12Zm-26.556,-0.221c-0,-0 5.145,4.237 8.372,6.894c1.849,1.523 4.519,1.52 6.365,-0.007c3.237,-2.677 8.413,-6.959 8.413,-6.959c0.425,-0.352 0.485,-0.983 0.133,-1.408c-0.351,-0.425 -0.982,-0.485 -1.408,-0.133c0,-0 -5.176,4.281 -8.412,6.959c-1.108,0.916 -2.71,0.918 -3.82,0.004c0,0 -8.372,-6.894 -8.372,-6.894c-0.426,-0.351 -1.056,-0.29 -1.407,0.136c-0.351,0.426 -0.29,1.057 0.136,1.408Z"/>
    </svg>


</svg>