<svg xmlns="http://www.w3.org/2000/svg">


    <symbol id="sale" viewBox="0 0 512 512">
        <path class="st0" d="M480.172,261.756c-0.708-1.866-1.058-3.811-1.058-5.756c0-1.958,0.35-3.904,1.058-5.756l18.696-49.088
            c1.614-4.234,2.395-8.654,2.395-12.993c0.007-12.041-5.981-23.658-16.532-30.552L440.742,128.9
            c-3.315-2.17-5.729-5.491-6.762-9.328l-13.727-50.702c-4.334-15.97-18.808-26.952-35.216-26.966c-0.615,0-1.23,0.027-1.852,0.053
            l0.926-0.053l-53.236,2.673l-0.92,0.013c-3.698,0-7.277-1.257-10.162-3.572L278.89,8.071c-6.662-5.372-14.8-8.085-22.883-8.071
            c-8.092-0.014-16.228,2.699-22.904,8.071l0.007,0.014l-40.905,32.932c-2.878,2.316-6.47,3.572-10.162,3.572l-0.596-0.013
            l-52.654-2.62h0.1c-0.721-0.04-1.363-0.04-1.932-0.04c-16.406,0-30.875,10.982-35.208,26.952l-13.728,50.702
            c-1.032,3.837-3.446,7.158-6.761,9.328l-43.988,28.712c-10.552,6.894-16.546,18.524-16.539,30.564c0,4.34,0.78,8.746,2.388,12.98
            l18.709,49.088c0.702,1.852,1.059,3.797,1.059,5.756c0,1.945-0.351,3.89-1.059,5.742l-18.702,49.102
            c-1.614,4.22-2.395,8.626-2.395,12.966c-0.007,12.041,5.98,23.672,16.539,30.578L71.264,383.1c3.314,2.17,5.729,5.478,6.761,9.315
            l13.728,50.702c4.333,15.97,18.808,26.952,35.208,26.952c0.569,0,1.171,0,1.82-0.04l52.476-2.62h0.099l0.715-0.026
            c3.672,0.013,7.251,1.27,10.135,3.586l40.905,32.959c6.669,5.372,14.799,8.071,22.897,8.071c8.084,0,16.221-2.699,22.89-8.071
            l40.905-32.959c2.884-2.329,6.457-3.586,10.134-3.586l0.788,0.026l52.23,2.607l0.351,0.013c0.543,0.026,1.118,0.04,1.733,0.04
            c16.4,0,30.882-10.969,35.216-26.952l13.727-50.702c1.032-3.837,3.441-7.145,6.755-9.315l43.995-28.712
            c10.552-6.906,16.539-18.524,16.532-30.564c0-4.34-0.781-8.759-2.395-12.993L480.172,261.756z M473.609,337.373l-43.981,28.712
            c-7.496,4.895-12.927,12.371-15.269,21.024l-13.728,50.689c-1.906,7.092-8.343,11.948-15.594,11.948l-0.886-0.014l-51.463-2.58
            l-0.893-0.04c-0.595-0.026-1.211-0.053-1.86-0.053c-8.309,0-16.393,2.845-22.89,8.084l-40.904,32.96
            c-2.971,2.381-6.53,3.572-10.135,3.572c-3.612,0-7.172-1.191-10.142-3.572l-40.905-32.96c-6.497-5.239-14.581-8.084-22.89-8.084
            c-0.543,0.013-1.164,0.013-1.832,0.053l-52.463,2.62l-0.814,0.014c-7.244,0.013-13.681-4.869-15.587-11.934l-13.727-50.716
            c-2.342-8.64-7.774-16.116-15.276-21.011L38.39,337.373c-4.677-3.057-7.323-8.217-7.33-13.563c0-1.918,0.344-3.85,1.058-5.729
            l18.703-49.088c1.594-4.181,2.395-8.587,2.395-12.993s-0.801-8.812-2.395-13.007l-18.703-49.075
            c-0.714-1.892-1.058-3.824-1.058-5.743c0.007-5.345,2.646-10.492,7.323-13.549l43.995-28.712
            c7.495-4.909,12.927-12.385,15.269-21.025l13.727-50.716c1.906-7.065,8.35-11.948,15.587-11.934l0.715,0.014l0.225,0.013
            l51.774,2.58l0.608,0.026l1.76,0.039c8.316,0,16.4-2.831,22.91-8.058l40.905-32.96l-6.371-7.912l6.378,7.912
            c2.97-2.395,6.53-3.572,10.142-3.586c3.605,0.013,7.164,1.191,10.135,3.586l40.911,32.946c6.51,5.253,14.601,8.071,22.904,8.071
            c0.615,0,1.178-0.013,1.687-0.026l52.919-2.646l0.476-0.014c7.245,0,13.688,4.883,15.594,11.948l13.728,50.716
            c2.342,8.64,7.773,16.116,15.269,21.012l43.987,28.725c4.678,3.056,7.324,8.204,7.324,13.536c0,1.918-0.337,3.85-1.065,5.769
            l-18.689,49.075c-1.602,4.181-2.395,8.588-2.395,12.994s0.8,8.812,2.395,12.993l18.695,49.075c0.722,1.905,1.059,3.837,1.059,5.756
            C480.939,329.156,478.293,334.316,473.609,337.373z"/>
        <path class="st0" d="M307.84,164.426c-2.011-3.083-5.412-4.962-9.076-4.962h-6.676c-4.194,0-7.998,2.448-9.771,6.271
            l-78.866,171.558c-1.482,3.294-1.243,7.198,0.728,10.28c1.998,3.083,5.424,4.962,9.096,4.962h6.642
            c4.208,0,8.032-2.435,9.778-6.259l78.878-171.557C310.083,171.426,309.825,167.522,307.84,164.426z"/>
        <path class="st0" d="M226.249,241.036c1.899-5.438,2.474-1.654,2.474-18.789c0-17.161-0.575-13.364-2.474-18.841
            c-4.611-13.575-17.69-22.335-35.136-22.335c-17.433,0-30.485,8.76-35.123,22.335c-1.912,5.478-2.461,1.68-2.461,18.841
            c0,17.134,0.549,13.35,2.461,18.789c4.638,13.628,17.69,22.348,35.123,22.348C208.559,263.383,221.638,254.664,226.249,241.036z
            M200.653,235.597c-1.376,4.102-4.896,6.259-9.54,6.259c-4.625,0-8.157-2.157-9.527-6.259c-0.82-2.183-1.079,3.242-1.079-13.35
            c0-16.631,0.258-11.207,1.079-13.364c1.37-4.102,4.902-6.284,9.527-6.284c4.644,0,8.163,2.183,9.54,6.284
            c0.826,2.156,1.078-3.268,1.078,13.364C201.731,238.839,201.48,233.414,200.653,235.597z"/>
        <path class="st0" d="M320.886,248.63c-17.452,0-30.511,8.72-35.149,22.308c-1.878,5.478-2.441,1.654-2.441,18.815
            c0,17.161,0.562,13.377,2.441,18.788c4.638,13.642,17.697,22.388,35.149,22.388c17.426,0,30.525-8.746,35.143-22.388
            c1.906-5.411,2.448-1.627,2.448-18.788c0-17.161-0.542-13.337-2.448-18.815C351.411,257.35,338.312,248.63,320.886,248.63z
            M330.4,303.13c-1.343,4.075-4.876,6.258-9.514,6.258c-4.638,0-8.176-2.183-9.546-6.258c-0.814-2.17-1.065,3.228-1.065-13.377
            c0-16.632,0.251-11.18,1.065-13.337c1.37-4.128,4.909-6.298,9.546-6.298c4.638,0,8.171,2.17,9.514,6.298
            c0.854,2.157,1.118-3.294,1.118,13.337C331.517,306.359,331.253,300.96,330.4,303.13z"/>
    </symbol>

    <symbol id="menu" fill="none" viewBox="0 0 22 22">
		<path stroke="currentColor" stroke-linecap="round" stroke-width="1.5" d="M12.8 13.25H20m-7.2 3.15H20m-7.2 3.15H20M3 20h5.2a1 1 0 0 0 1-1v-5.2a1 1 0 0 0-1-1H3a1 1 0 0 0-1 1V19a1 1 0 0 0 1 1zM13.8 9.65H19a1 1 0 0 0 1-1V3a1 1 0 0 0-1-1h-5.2a1 1 0 0 0-1 1v5.65a1 1 0 0 0 1 1zM3 9.65h5.2a1 1 0 0 0 1-1V3a1 1 0 0 0-1-1H3a1 1 0 0 0-1 1v5.65a1 1 0 0 0 1 1z"></path>
	</symbol>

    <symbol viewBox="0 0 24 24" fill="none" id="burger">
        <path d="M4 18H10" stroke-width="2" stroke-linecap="round"/>
        <path d="M4 12L16 12" stroke-width="2" stroke-linecap="round"/>
        <path d="M4 6L20 6" stroke-width="2" stroke-linecap="round"/>
    </symbol> 

    <symbol viewBox="0 -3.71 75.17 75.17" id="favorites">
        <path d="M117.606,280.375s22.263-15.459,31.959-30.318c9.6-14.708.354-31.054-10.533-33.8-14.457-3.65-21.426,10.478-21.426,10.478s-6.968-14.128-21.425-10.478c-10.888,2.748-20.132,19.094-10.534,33.8C95.343,264.916,117.606,280.375,117.606,280.375Z" transform="translate(-80.021 -214.131)" fill="none" stroke-linejoin="round" stroke-width="4"/>
    </symbol>

    <symbol viewBox="0 -3.71 75.17 75.17" id="favoritesFilled">
        <path d="M117.606,280.375s22.263-15.459,31.959-30.318c9.6-14.708.354-31.054-10.533-33.8-14.457-3.65-21.426,10.478-21.426,10.478s-6.968-14.128-21.425-10.478c-10.888,2.748-20.132,19.094-10.534,33.8C95.343,264.916,117.606,280.375,117.606,280.375Z" transform="translate(-80.021 -214.131)" fill="#f05a00"  stroke-linejoin="round" stroke-width="3"/>
    </symbol>

    <symbol stroke="none" viewBox="0 0 24 24" id="user">
        <path fill-rule="evenodd" clip-rule="evenodd" d="M12.0001 1.25C9.37678 1.25 7.25013 3.37665 7.25013 6C7.25013 8.62335 9.37678 10.75 12.0001 10.75C14.6235 10.75 16.7501 8.62335 16.7501 6C16.7501 3.37665 14.6235 1.25 12.0001 1.25ZM8.75013 6C8.75013 4.20507 10.2052 2.75 12.0001 2.75C13.7951 2.75 15.2501 4.20507 15.2501 6C15.2501 7.79493 13.7951 9.25 12.0001 9.25C10.2052 9.25 8.75013 7.79493 8.75013 6Z"/>
        <path fill-rule="evenodd" clip-rule="evenodd" d="M12.0001 12.25C9.68658 12.25 7.55506 12.7759 5.97558 13.6643C4.41962 14.5396 3.25013 15.8661 3.25013 17.5L3.25007 17.602C3.24894 18.7638 3.24752 20.222 4.52655 21.2635C5.15602 21.7761 6.03661 22.1406 7.22634 22.3815C8.4194 22.6229 9.97436 22.75 12.0001 22.75C14.0259 22.75 15.5809 22.6229 16.7739 22.3815C17.9637 22.1406 18.8443 21.7761 19.4737 21.2635C20.7527 20.222 20.7513 18.7638 20.7502 17.602L20.7501 17.5C20.7501 15.8661 19.5807 14.5396 18.0247 13.6643C16.4452 12.7759 14.3137 12.25 12.0001 12.25ZM4.75013 17.5C4.75013 16.6487 5.37151 15.7251 6.71098 14.9717C8.02693 14.2315 9.89541 13.75 12.0001 13.75C14.1049 13.75 15.9733 14.2315 17.2893 14.9717C18.6288 15.7251 19.2501 16.6487 19.2501 17.5C19.2501 18.8078 19.2098 19.544 18.5265 20.1004C18.156 20.4022 17.5366 20.6967 16.4763 20.9113C15.4194 21.1252 13.9744 21.25 12.0001 21.25C10.0259 21.25 8.58087 21.1252 7.52393 20.9113C6.46366 20.6967 5.84425 20.4022 5.47372 20.1004C4.79045 19.544 4.75013 18.8078 4.75013 17.5Z"/>
    </symbol>

    <svg viewBox="0 0 24 24" fill ="none" id="basket">
        <path d="M2.08368 2.7512C2.22106 2.36044 2.64921 2.15503 3.03998 2.29242L3.34138 2.39838C3.95791 2.61511 4.48154 2.79919 4.89363 3.00139C5.33426 3.21759 5.71211 3.48393 5.99629 3.89979C6.27827 4.31243 6.39468 4.76515 6.44841 5.26153C6.47247 5.48373 6.48515 5.72967 6.49184 6H17.1301C18.815 6 20.3318 6 20.7757 6.57708C21.2197 7.15417 21.0461 8.02369 20.699 9.76275L20.1992 12.1875C19.8841 13.7164 19.7266 14.4808 19.1748 14.9304C18.6231 15.38 17.8426 15.38 16.2816 15.38H10.9787C8.18979 15.38 6.79534 15.38 5.92894 14.4662C5.06254 13.5523 4.9993 12.5816 4.9993 9.64L4.9993 7.03832C4.9993 6.29837 4.99828 5.80316 4.95712 5.42295C4.91779 5.0596 4.84809 4.87818 4.75783 4.74609C4.66977 4.61723 4.5361 4.4968 4.23288 4.34802C3.91003 4.18961 3.47128 4.03406 2.80367 3.79934L2.54246 3.7075C2.1517 3.57012 1.94629 3.14197 2.08368 2.7512Z"/>
        <path d="M7.5 18C8.32843 18 9 18.6716 9 19.5C9 20.3284 8.32843 21 7.5 21C6.67157 21 6 20.3284 6 19.5C6 18.6716 6.67157 18 7.5 18Z"/>
        <path d="M16.5 18.0001C17.3284 18.0001 18 18.6716 18 19.5001C18 20.3285 17.3284 21.0001 16.5 21.0001C15.6716 21.0001 15 20.3285 15 19.5001C15 18.6716 15.6716 18.0001 16.5 18.0001Z" />
    </svg>
    
    <svg viewBox="0 0 24 24" fill="none" id="full-basket">
        <path stroke = "#008000" fill="#008000" d="M2.08368 2.7512C2.22106 2.36044 2.64921 2.15503 3.03998 2.29242L3.34138 2.39838C3.95791 2.61511 4.48154 2.79919 4.89363 3.00139C5.33426 3.21759 5.71211 3.48393 5.99629 3.89979C6.27827 4.31243 6.39468 4.76515 6.44841 5.26153C6.47247 5.48373 6.48515 5.72967 6.49184 6H17.1301C18.815 6 20.3318 6 20.7757 6.57708C21.2197 7.15417 21.0461 8.02369 20.699 9.76275L20.1992 12.1875C19.8841 13.7164 19.7266 14.4808 19.1748 14.9304C18.6231 15.38 17.8426 15.38 16.2816 15.38H10.9787C8.18979 15.38 6.79534 15.38 5.92894 14.4662C5.06254 13.5523 4.9993 12.5816 4.9993 9.64L4.9993 7.03832C4.9993 6.29837 4.99828 5.80316 4.95712 5.42295C4.91779 5.0596 4.84809 4.87818 4.75783 4.74609C4.66977 4.61723 4.5361 4.4968 4.23288 4.34802C3.91003 4.18961 3.47128 4.03406 2.80367 3.79934L2.54246 3.7075C2.1517 3.57012 1.94629 3.14197 2.08368 2.7512Z"/>
        <path stroke = "#008000" fill="#008000" d="M7.5 18C8.32843 18 9 18.6716 9 19.5C9 20.3284 8.32843 21 7.5 21C6.67157 21 6 20.3284 6 19.5C6 18.6716 6.67157 18 7.5 18Z"/>
        <path stroke = "#008000" fill="#008000" d="M16.5 18.0001C17.3284 18.0001 18 18.6716 18 19.5001C18 20.3285 17.3284 21.0001 16.5 21.0001C15.6716 21.0001 15 20.3285 15 19.5001C15 18.6716 15.6716 18.0001 16.5 18.0001Z" />
        <path stroke="#ffffff" fill="#ffffff" d="M15.5421 9.51724C15.8278 9.2173 15.8162 8.74256 15.5163 8.4569C15.2163 8.17123 14.7416 8.18281 14.4559 8.48276L12.1419 10.9125L11.5421 10.2828C11.2565 9.98281 10.7817 9.97123 10.4818 10.2569C10.1818 10.5426 10.1703 11.0173 10.4559 11.3172L11.5988 12.5172C11.7403 12.6659 11.9366 12.75 12.1419 12.75C12.3471 12.75 12.5434 12.6659 12.685 12.5172L15.5421 9.51724Z" />
    </svg>

    <symbol viewBox="0 0 32 32" id="back">
        <path d="M14.389 7.956v4.374l1.056 0.010c7.335 0.071 11.466 3.333 12.543 9.944-4.029-4.661-8.675-4.663-12.532-4.664h-1.067v4.337l-9.884-7.001 9.884-7zM15.456 5.893l-12.795 9.063 12.795 9.063v-5.332c5.121 0.002 9.869 0.26 13.884 7.42 0-4.547-0.751-14.706-13.884-14.833v-5.381z">
        </path>
    </symbol>

    <symbol viewBox="0 0 24 24" fill="none" id="arrowTop">
        <path d="M12 6V18M12 6L7 11M12 6L17 11" stroke-width="2" stroke-linecap="round" stroke-linejoin="round"/>
    </symbol>

    <svg viewBox="0 0 24 24" stroke="none" id="arrowPrev">
        <path d="M16.1795 3.26875C15.7889 2.87823 15.1558 2.87823 14.7652 3.26875L8.12078 9.91322C6.94952 11.0845 6.94916 12.9833 8.11996 14.155L14.6903 20.7304C15.0808 21.121 15.714 21.121 16.1045 20.7304C16.495 20.3399 16.495 19.7067 16.1045 19.3162L9.53246 12.7442C9.14194 12.3536 9.14194 11.7205 9.53246 11.33L16.1795 4.68297C16.57 4.29244 16.57 3.65928 16.1795 3.26875Z"/>
    </svg>

    <symbol viewBox="0 0 24 24" stroke="none" id="arrowNext">
        <path d="M7.82054 20.7313C8.21107 21.1218 8.84423 21.1218 9.23476 20.7313L15.8792 14.0868C17.0505 12.9155 17.0508 11.0167 15.88 9.84497L9.3097 3.26958C8.91918 2.87905 8.28601 2.87905 7.89549 3.26958C7.50497 3.6601 7.50497 4.29327 7.89549 4.68379L14.4675 11.2558C14.8581 11.6464 14.8581 12.2795 14.4675 12.67L7.82054 19.317C7.43002 19.7076 7.43002 20.3407 7.82054 20.7313Z" />
    </symbol>    

     <symbol viewBox="0 0 48 48" id="phone">
        <path class="c" d="m19.308,12.467c-.4234-1.4115-.7215-2.8773-.8813-4.3843-.1571-1.4812-1.449-2.5826-2.9385-2.5826h-6.9092c-1.7767,0-3.1454,1.5345-2.989,3.3043,1.5754,17.8285,15.7771,32.0302,33.6056,33.6056,1.7698.1564,3.3043-1.2073,3.3043-2.9839v-6.1595c0-2.2488-1.1015-3.5362-2.5826-3.6932-1.507-.1598-2.9728-.4579-4.3843-.8813-1.7266-.5179-3.5957-.0304-4.8704,1.2442l-2.9566,2.9566c-5.326-2.8825-9.7164-7.2729-12.5989-12.5989l2.9566-2.9567c1.2746-1.2746,1.7621-3.1438,1.2442-4.8703Z"/>
     </symbol>

    <symbol viewBox="0 0 32 32" style="fill-rule:evenodd;clip-rule:evenodd;stroke-linejoin:round;stroke-miterlimit:2;"  id="email">
        <path d="M31,10c0,-1.326 -0.527,-2.598 -1.464,-3.536c-0.938,-0.937 -2.21,-1.464 -3.536,-1.464c-5.322,0 -14.678,0 -20,0c-1.326,-0 -2.598,0.527 -3.536,1.464c-0.937,0.938 -1.464,2.21 -1.464,3.536c0,3.486 0,8.514 0,12c-0,1.326 0.527,2.598 1.464,3.536c0.938,0.937 2.21,1.464 3.536,1.464c5.322,-0 14.678,-0 20,-0c1.326,0 2.598,-0.527 3.536,-1.464c0.937,-0.938 1.464,-2.21 1.464,-3.536c0,-3.486 0,-8.514 0,-12Zm-26.556,-0.221c-0,-0 5.145,4.237 8.372,6.894c1.849,1.523 4.519,1.52 6.365,-0.007c3.237,-2.677 8.413,-6.959 8.413,-6.959c0.425,-0.352 0.485,-0.983 0.133,-1.408c-0.351,-0.425 -0.982,-0.485 -1.408,-0.133c0,-0 -5.176,4.281 -8.412,6.959c-1.108,0.916 -2.71,0.918 -3.82,0.004c0,0 -8.372,-6.894 -8.372,-6.894c-0.426,-0.351 -1.056,-0.29 -1.407,0.136c-0.351,0.426 -0.29,1.057 0.136,1.408Z"/>
    </symbol>

    <symbol  viewBox="0 0 24 24"  id = "minus">
        <path fill-rule="evenodd" clip-rule="evenodd" d="M4 12C4 11.4477 4.44772 11 5 11H19C19.5523 11 20 11.4477 20 12C20 12.5523 19.5523 13 19 13H5C4.44772 13 4 12.5523 4 12Z" />
    </symbol>

    <symbol  viewBox="0 0 24 24" id = "plus">
        <path fill-rule="evenodd" clip-rule="evenodd" d="M13 4C13 3.44772 12.5523 3 12 3C11.4477 3 11 3.44772 11 4V11H4C3.44772 11 3 11.4477 3 12C3 12.5523 3.44772 13 4 13H11V20C11 20.5523 11.4477 21 12 21C12.5523 21 13 20.5523 13 20V13H20C20.5523 13 21 12.5523 21 12C21 11.4477 20.5523 11 20 11H13V4Z" />
    </symbol>

    <symbol viewBox="0 0 24 24" stroke="none" id ="close">
        <path d="M20.7457 3.32851C20.3552 2.93798 19.722 2.93798 19.3315 3.32851L12.0371 10.6229L4.74275 3.32851C4.35223 2.93798 3.71906 2.93798 3.32854 3.32851C2.93801 3.71903 2.93801 4.3522 3.32854 4.74272L10.6229 12.0371L3.32856 19.3314C2.93803 19.722 2.93803 20.3551 3.32856 20.7457C3.71908 21.1362 4.35225 21.1362 4.74277 20.7457L12.0371 13.4513L19.3315 20.7457C19.722 21.1362 20.3552 21.1362 20.7457 20.7457C21.1362 20.3551 21.1362 19.722 20.7457 19.3315L13.4513 12.0371L20.7457 4.74272C21.1362 4.3522 21.1362 3.71903 20.7457 3.32851Z" />
    </symbol>

    <symbol  viewBox="0 0 24 24" fill="none" id ="home">
        <path d="M22 22L2 22"  stroke-width="1.5" stroke-linecap="round"/>
        <path d="M2 11L10.1259 4.49931C11.2216 3.62279 12.7784 3.62279 13.8741 4.49931L22 11" stroke-width="1.5" stroke-linecap="round"/>
        <path d="M15.5 5.5V3.5C15.5 3.22386 15.7239 3 16 3H18.5C18.7761 3 19 3.22386 19 3.5V8.5" stroke-width="1.5" stroke-linecap="round"/>
        <path d="M4 22V9.5"  stroke-width="1.5" stroke-linecap="round"/>
        <path d="M20 22V9.5" stroke-width="1.5" stroke-linecap="round"/>
        <path d="M15 22V17C15 15.5858 15 14.8787 14.5607 14.4393C14.1213 14 13.4142 14 12 14C10.5858 14 9.87868 14 9.43934 14.4393C9 14.8787 9 15.5858 9 17V22" stroke-width="1.5"/>
        <path d="M14 9.5C14 10.6046 13.1046 11.5 12 11.5C10.8954 11.5 10 10.6046 10 9.5C10 8.39543 10.8954 7.5 12 7.5C13.1046 7.5 14 8.39543 14 9.5Z" stroke-width="1.5"/>
    </symbol>

    <symbol fill="#000000" viewBox="0 0 256.00098 256.00098" id="search" >
        <path d="M226.82129,221.17236,180.955,175.306a88.10138,88.10138,0,1,0-5.657,5.65649L221.165,226.82959a3.99992,3.99992,0,0,0,5.65625-5.65723ZM35.999,116a80,80,0,1,1,80,80A80.09041,80.09041,0,0,1,35.999,116Z"/>
    </symbol>

    <symbol id="emptyFavorites"  viewBox="0 0 433.012 433.012">
			<path d="M249.062,279.146l-29.115-20.59l0.457-35.655c0.049-3.807-2.068-7.31-5.458-9.038c-3.393-1.729-7.473-1.381-10.521,0.896
				l-28.578,21.327l-33.77-11.452c-3.605-1.222-7.59-0.293-10.283,2.399c-2.691,2.692-3.621,6.678-2.398,10.283l11.451,33.77
				l-21.326,28.578c-2.277,3.051-2.623,7.129-0.896,10.521c1.729,3.392,5.27,5.52,9.039,5.459l35.654-0.455l20.59,29.112
				c1.893,2.676,4.949,4.228,8.162,4.228c0.52,0,1.043-0.041,1.566-0.124c3.76-0.596,6.855-3.274,7.984-6.909l10.586-34.051
				l34.051-10.584c3.635-1.13,6.312-4.227,6.907-7.985C253.76,285.115,252.17,281.343,249.062,279.146z M201.248,289.906
				c-3.143,0.977-5.604,3.438-6.58,6.581l-6.133,19.723l-11.926-16.863c-1.875-2.651-4.92-4.226-8.164-4.226
				c-0.041,0-0.084,0-0.127,0.001l-20.652,0.264l12.354-16.553c1.967-2.638,2.512-6.075,1.455-9.192l-6.633-19.56l19.559,6.633
				c3.119,1.058,6.557,0.514,9.193-1.456l16.553-12.353l-0.264,20.651c-0.043,3.291,1.537,6.393,4.225,8.292l16.863,11.926
				L201.248,289.906z"/>
			<path d="M376.885,5.057c-33.625-14.943-74.965,4.36-92.146,43.028c-2.973,6.691-5.01,13.53-6.207,20.343l-30.141,1.482
				c-2.479,0.122-4.824,1.162-6.58,2.917L21.734,292.905c-1.875,1.875-2.928,4.419-2.928,7.071c0,2.651,1.053,5.195,2.928,7.07
				l123.037,123.036c1.953,1.953,4.512,2.93,7.072,2.93c2.559,0,5.117-0.978,7.07-2.93l220.078-220.078
				c1.754-1.755,2.795-4.101,2.916-6.58l3.531-71.801c8.935-7.957,16.24-18.014,21.275-29.344
				C423.895,63.614,410.514,20,376.885,5.057z M151.844,408.87L42.95,299.976l210.277-210.28l24.225-1.191
				c1.24,17.583,8.244,33.737,19.984,45.171c-1.422,5.623,0.047,11.827,4.445,16.226c6.647,6.648,17.43,6.648,24.078,0
				c6.647-6.648,6.647-17.429,0-24.077c-4.379-4.38-10.552-5.855-16.154-4.463c-8.734-8.355-13.941-20.415-14.93-33.713
				l72.879-3.584l-5.633,114.527L151.844,408.87z M390.748,95.187c-1.152,2.593-2.453,5.1-3.888,7.506l1.41-28.668
				c0.139-2.819-0.92-5.566-2.916-7.563c-1.996-1.995-4.742-3.055-7.562-2.917l-81.259,3.997c0.984-4.141,2.359-8.284,4.173-12.363
				c13.268-29.864,44.26-45.187,69.084-34.155C394.615,32.055,404.018,65.324,390.748,95.187z"/>
    </symbol>


    <symbol  viewBox="0 0 185.42 99.73" id ="emptyBasket">
        <path d="m36.06 76.41l-12.65 0c-1.4 0-3 0-2.86-2 0.13-1.73 1.73-1.42 2.89-1.43q13.06 0 26.12 0c1.18 0 2.74-0.24 2.85 1.49 0.13 2-1.51 1.9-2.88 1.9 -4.53 0.05-8.98 0.05-13.47 0.04z">
        </path>
        <path  d="m53.91 87.12c-2 0-4.08 0-6.11 0 -1 0-1.91-0.44-1.82-1.68a1.52 1.52 0 0 1 1.7-1.44q6.52-0.05 13 0c1 0 2 0.45 1.83 1.67s-1.1 1.42-2.12 1.42l-6.48 0 0 0.03z">
        </path>
        <path  d="m33.74 99.33c-2 0-4.06 0-6.09 0 -0.88 0-1.66-0.36-1.76-1.3s0.7-1.46 1.55-1.47q6.29-0.06 12.58 0c0.78 0 1.71 0.22 1.76 1.27 0.05 1.32-1 1.46-2 1.48 -1.98 0.05-4.01 0.02-6.04 0.02z">
        </path>
        <path  d="m39.2 87.15c-1.19-0.06-2.71 0.08-2.66-1.6s1.56-1.55 2.75-1.55 2.7-0.11 2.65 1.6 -1.56 1.49-2.74 1.55z">
        </path>
        <path  d="m2.54 73.56c1.36 0.23 3.11-0.23 3 1.59s-1.83 1.22-3 1.24 -2.49 0.32-2.54-1.25c-0.06-1.97 1.76-1.14 2.54-1.58z">
        </path>
        <path d="m16.8 96.48c1 0.11 2.35-0.09 2.32 1.47 0 1.18-1.06 1.39-2.05 1.38s-2.32 0-2.34-1.48c-0.01-1.3 1.12-1.26 2.07-1.37z">
        </path>
        <path  d="m12.92 76.44c-1.23-0.11-2-0.68-2-1.73 0-1.33 0.93-1.86 2.13-1.78a1.62 1.62 0 0 1 1.63 1.87 1.71 1.71 0 0 1-1.76 1.64z">
        </path>
        <path  d="m149.36 76.8l12.64 0c1.4 0 3 0 2.86-2 -0.13-1.73-1.73-1.42-2.89-1.43q-13.06 0-26.12 0c-1.18 0-2.74-0.24-2.85 1.49 -0.13 2 1.51 1.9 2.88 1.9 4.5 0.05 8.99 0.04 13.48 0.04z">
        </path>
        <path d="m131.51 87.5c2 0 4.08 0 6.11 0 1 0 1.91-0.44 1.82-1.68a1.52 1.52 0 0 0-1.71-1.38q-6.52-0.05-13 0c-1 0-2 0.45-1.83 1.67s1.1 1.42 2.12 1.42l6.52 0 -0.03-0.03z">
        </path>
        <path d="m151.68 99.71c2 0 4.06 0 6.09 0 0.88 0 1.66-0.36 1.76-1.3s-0.7-1.46-1.55-1.47q-6.29-0.06-12.58 0c-0.78 0-1.71 0.22-1.76 1.27 -0.05 1.32 1 1.46 2 1.48 1.98 0.06 4.01 0.03 6.04 0.02z">
        </path>
        <path d="m146.22 87.54c1.19-0.06 2.71 0.08 2.66-1.6s-1.56-1.54-2.75-1.53 -2.7-0.11-2.65 1.6 1.52 1.47 2.74 1.53z">
        </path>
        <path d="m182.88 74c-1.36 0.23-3.11-0.23-3 1.59s1.83 1.22 3 1.24 2.49 0.32 2.54-1.26c0.06-2.01-1.76-1.18-2.54-1.57z">
        </path>
        <path d="m168.62 96.87c-1 0.11-2.35-0.09-2.32 1.47 0 1.18 1.06 1.39 2.05 1.38s2.32 0 2.34-1.48c0.01-1.3-1.12-1.24-2.07-1.37z">
        </path>
        <path d="m172.5 76.83c1.23-0.11 2-0.68 2-1.73 0-1.33-0.93-1.86-2.13-1.78a1.62 1.62 0 0 0-1.63 1.87 1.71 1.71 0 0 0 1.76 1.64z">
        </path>
        <text transform="matrix(0.95 0.31 -0.31 0.95 134.5 48.15)">  +</text><text  transform="rotate(-10 60 17)" y="17.05" x="60.6">+</text><text  y="40.9" x="32.21">+</text>
        <polygon  points="57.99 37.43 54.68 44.38 50.55 37.66 57.99 37.43"></polygon><polygon  points="105.31 20.91 105.41 13.21 111.97 17.58 105.31 20.91">
        </polygon><circle  cx="29.13" cy="53.5" r="3.41"></circle><circle  cx="21.55" cy="86.1" r="3.41"></circle><circle cx="78.09" cy="43.97" r="2.09" transform="rotate(-16 -2 23)"></circle><circle cx="119.35" cy="50.83" r="2.09" transform="rotate(-16 0 33)"></circle><g><g><path d="m115.915 41.909c-0.697-0.813-1.713-1.278-2.788-1.278l-35.426 0c-0.581 0-1.045 0.465-1.045 1.045s0.465 1.045 1.045 1.045l35.426 0c0.465 0 0.929 0.203 1.22 0.552 0.29 0.348 0.436 0.813 0.377 1.278l-3.397 14.955c0 0.029 0 0.058 0 0.058 -0.203 1.249-1.307 2.178-2.555 2.178l-24.16 0c-0.581 0-1.045 0.465-1.045 1.045 0 0.581 0.465 1.045 1.045 1.045l24.16 0c2.294 0 4.211-1.626 4.588-3.891l3.397-14.955c0-0.029 0-0.058 0-0.058 0.174-1.103-0.145-2.178-0.842-3.02l0 0z"></path><path d="m82.957 73.618c-2.671 0-4.849 2.178-4.849 4.849 0 2.672 2.178 4.849 4.849 4.849 2.672 0 4.849-2.178 4.849-4.849 0-2.671-2.178-4.849-4.849-4.849zm0 7.637c-1.539 0-2.788-1.249-2.788-2.788 0-1.539 1.249-2.788 2.788-2.788 1.539 0 2.788 1.249 2.788 2.788 0 1.539-1.249 2.788-2.788 2.788z"></path><path class="st0" d="m104.503 73.618c-2.671 0-4.849 2.178-4.849 4.849 0 2.672 2.178 4.849 4.849 4.849 2.672 0 4.849-2.178 4.849-4.849 0-2.671-2.178-4.849-4.849-4.849zm0 7.637c-1.539 0-2.788-1.249-2.788-2.788 0-1.539 1.249-2.788 2.788-2.788 1.539 0 2.788 1.249 2.788 2.788 0 1.539-1.249 2.788-2.788 2.788z"></path><path class="st0" d="m108.336 68.885l-28.893 0 -2.701-10.599 -5.256-22.737c-0.348-1.336-1.539-2.265-2.933-2.265l-6.766 0c-0.581 0-1.045 0.465-1.045 1.045s0.465 1.045 1.045 1.045l6.795 0c0.436 0 0.813 0.29 0.929 0.697l4.936 21.401c0 0.087 0 0.174 0.029 0.232l0.29 1.103 0 0.029c0 0 0 0 0 0.029l2.875 11.325c0.116 0.465 0.523 0.784 0.987 0.784l0.116 0 29.561 0c0.581 0 1.045-0.465 1.045-1.045s-0.465-1.045-1.016-1.045l0 0z"></path></g><g class="a"><g class="a"><path class="st1" d="m86.732 57.444c1.887-2.207 4.995-3.485 7.84-3.601 2.207-0.087 4.443 0.436 6.359 1.481 0.697 0.377 1.684 1.045 2.12 1.51 0.29 0.29 1.074-0.058 0.755-0.377 -4.646-4.646-13.532-4.24-17.8 0.726 -0.319 0.377 0.465 0.552 0.726 0.261l0 0 0 0z"></path></g><path class="st1" d="m89.142 48.326c0.145 0.61-0.203 1.22-0.726 1.394 -0.552 0.145-1.103-0.203-1.249-0.813 -0.145-0.61 0.203-1.22 0.726-1.394 0.552-0.174 1.103 0.203 1.249 0.813z">
        </path>
        <path  d="m103.254 48.704c0.145 0.61-0.203 1.22-0.726 1.394 -0.552 0.145-1.103-0.203-1.249-0.813s0.203-1.22 0.726-1.394c0.552-0.174 1.132 0.203 1.249 0.813z">
        </path>
    </symbol>






</svg>